<svg width="115" height="93" viewBox="0 0 115 93" fill="none" xmlns="http://www.w3.org/2000/svg">
<path d="M99.2585 32.8135C98.0904 28.4489 94.6601 25.019 90.2956 23.8507C82.3929 21.731 50.689 21.731 50.689 21.731C50.689 21.731 18.9855 21.731 11.0825 23.8507C6.71795 25.019 3.28803 28.4489 2.1197 32.8135C6.34504e-07 40.7164 0 57.215 0 57.215C0 57.215 6.34504e-07 73.7137 2.1197 81.6167C3.28803 85.9812 6.71795 89.4111 11.0825 90.5793C18.9855 92.6991 50.689 92.6991 50.689 92.6991C50.689 92.6991 82.3929 92.6991 90.2956 90.5793C94.6601 89.4111 98.0904 85.9812 99.2585 81.6167C101.378 73.7137 101.378 57.215 101.378 57.215C101.378 57.215 101.37 40.7164 99.2585 32.8135Z" fill="#FF0000"/>
<path d="M110.629 34.0769C111.527 32.1405 111.322 29.858 110.093 28.1126C107.869 24.9508 96.373 15.35 96.373 15.35C96.373 15.35 84.8767 5.74932 81.369 4.12472C79.4325 3.22668 77.1501 3.43177 75.4047 4.66064C72.2429 6.88451 67.2466 12.8672 67.2466 12.8672C67.2466 12.8672 62.2504 18.85 60.6258 22.3577C59.7278 24.2941 59.9328 26.5765 61.1618 28.3218C63.3856 31.4838 74.8819 41.0845 74.8819 41.0845C74.8819 41.0845 86.3784 50.6853 89.886 52.3097C91.8224 53.2078 94.105 53.0029 95.8502 51.7739C99.0122 49.5501 104.008 43.5673 104.008 43.5673C104.008 43.5673 109.002 37.582 110.629 34.0769Z" fill="#FF0000"/>
<path fill-rule="evenodd" clip-rule="evenodd" d="M88.3604 26.504V18.6265H82.3844L82.3844 26.504H74.5068V32.48H82.3844L82.3844 40.3576H88.3604V32.48H96.238V26.504H88.3604Z" fill="white"/>
<path d="M29.7746 41.4705H22.7136V79.0006H15.7534V41.4705H8.69238V35.7505H29.7746V41.4705Z" fill="#FFFCFC"/>
<path d="M46.9346 79.002H41.3689L40.7518 75.1333H40.5976C39.0846 78.0526 36.8179 79.5122 33.7916 79.5122C31.697 79.5122 30.1484 78.8239 29.1516 77.4534C28.1548 76.0766 27.6562 73.9288 27.6562 71.0095V47.3995H34.7708V70.5939C34.7708 72.0063 34.9249 73.0089 35.2335 73.6084C35.5421 74.2076 36.0583 74.5101 36.7824 74.5101C37.3992 74.5101 37.9926 74.3204 38.5623 73.9407C39.132 73.5607 39.5473 73.0801 39.8261 72.4988V47.3936H46.9346V79.002Z" fill="#FFFCFC"/>
<path d="M70.4792 52.4482C70.046 50.4545 69.3517 49.0127 68.3907 48.1167C67.4294 47.2207 66.1061 46.7757 64.421 46.7757C63.1157 46.7757 61.8933 47.1436 60.7599 47.8853C59.6266 48.627 58.7484 49.5941 58.1312 50.7987H58.078V34.1489H51.2246V78.9952H57.0989L57.8227 76.0047H57.9771C58.5289 77.0727 59.3536 77.9093 60.4514 78.5325C61.5491 79.1496 62.7715 79.4582 64.1125 79.4582C66.5156 79.4582 68.2898 78.3486 69.4231 76.1352C70.5564 73.916 71.1259 70.4567 71.1259 65.7456V60.7435C71.1259 57.2129 70.9063 54.4419 70.4792 52.4482ZM63.9581 65.3419C63.9581 67.6441 63.8632 69.448 63.6732 70.7534C63.4835 72.0588 63.1689 72.9905 62.718 73.5363C62.273 74.088 61.6677 74.361 60.9141 74.361C60.3268 74.361 59.7868 74.2245 59.2883 73.9457C58.79 73.6728 58.3866 73.2575 58.078 72.7115V54.7742C58.3152 53.9138 58.7307 53.2137 59.3181 52.6618C59.8996 52.11 60.5404 51.837 61.2227 51.837C61.9468 51.837 62.5043 52.1219 62.8961 52.6856C63.2935 53.2552 63.5665 54.2046 63.7209 55.5456C63.8751 56.8866 63.9523 58.7912 63.9523 61.2655V65.3419H63.9581Z" fill="#FFFCFC"/>
<path d="M81.2187 67.1636C81.2187 69.1928 81.278 70.7119 81.3969 71.7266C81.5154 72.7411 81.7647 73.4771 82.1444 73.9458C82.5241 74.4086 83.1057 74.6399 83.8949 74.6399C84.957 74.6399 85.6927 74.2246 86.0843 73.3999C86.4819 72.5751 86.6956 71.1986 86.7312 69.2761L92.8666 69.6379C92.9021 69.9108 92.9198 70.2905 92.9198 70.7712C92.9198 73.6905 92.1187 75.8741 90.5227 77.316C88.9267 78.7579 86.6658 79.4818 83.7465 79.4818C80.2398 79.4818 77.7832 78.384 76.3769 76.1827C74.9648 73.9814 74.2646 70.5814 74.2646 65.9768V60.4585C74.2646 55.7176 74.9946 52.2524 76.4541 50.0688C77.9139 47.8853 80.4119 46.7935 83.9541 46.7935C86.3928 46.7935 88.2679 47.2385 89.5733 48.1345C90.8787 49.0304 91.7983 50.4189 92.3324 52.3117C92.8666 54.2046 93.1335 56.8154 93.1335 60.1499V65.5615H81.2187V67.1636ZM82.1207 52.2702C81.7586 52.7152 81.5215 53.4451 81.3969 54.4597C81.278 55.4744 81.2187 57.0112 81.2187 59.0762V61.3428H86.4226V59.0762C86.4226 57.0468 86.3515 55.51 86.215 54.4597C86.0785 53.4095 85.8292 52.6737 85.4672 52.2405C85.1054 51.8133 84.5475 51.5938 83.7939 51.5938C83.0345 51.5997 82.4767 51.8252 82.1207 52.2702Z" fill="#FFFCFC"/>
<path d="M99.2585 32.8135C98.0904 28.4489 94.6601 25.019 90.2956 23.8507C82.3929 21.731 50.689 21.731 50.689 21.731C50.689 21.731 18.9855 21.731 11.0825 23.8507C6.71795 25.019 3.28803 28.4489 2.1197 32.8135C6.34504e-07 40.7164 0 57.215 0 57.215C0 57.215 6.34504e-07 73.7137 2.1197 81.6167C3.28803 85.9812 6.71795 89.4111 11.0825 90.5793C18.9855 92.6991 50.689 92.6991 50.689 92.6991C50.689 92.6991 82.3929 92.6991 90.2956 90.5793C94.6601 89.4111 98.0904 85.9812 99.2585 81.6167C101.378 73.7137 101.378 57.215 101.378 57.215C101.378 57.215 101.37 40.7164 99.2585 32.8135Z" fill="#FF0000"/>
<path d="M110.629 34.0769C111.527 32.1405 111.322 29.858 110.093 28.1126C107.869 24.9508 96.373 15.35 96.373 15.35C96.373 15.35 84.8767 5.74932 81.369 4.12472C79.4325 3.22668 77.1501 3.43177 75.4047 4.66064C72.2429 6.88451 67.2466 12.8672 67.2466 12.8672C67.2466 12.8672 62.2504 18.85 60.6258 22.3577C59.7278 24.2941 59.9328 26.5765 61.1618 28.3218C63.3856 31.4838 74.8819 41.0845 74.8819 41.0845C74.8819 41.0845 86.3784 50.6853 89.886 52.3097C91.8224 53.2078 94.105 53.0029 95.8502 51.7739C99.0122 49.5501 104.008 43.5673 104.008 43.5673C104.008 43.5673 109.002 37.582 110.629 34.0769Z" fill="#FF0000"/>
<path fill-rule="evenodd" clip-rule="evenodd" d="M88.3604 26.504V18.6265H82.3844L82.3844 26.504H74.5068V32.48H82.3844L82.3844 40.3576H88.3604V32.48H96.238V26.504H88.3604Z" fill="white"/>
<path d="M29.7746 41.4705H22.7136V79.0006H15.7534V41.4705H8.69238V35.7505H29.7746V41.4705Z" fill="#FFFCFC"/>
<path d="M46.9346 79.002H41.3689L40.7518 75.1333H40.5976C39.0846 78.0526 36.8179 79.5122 33.7916 79.5122C31.697 79.5122 30.1484 78.8239 29.1516 77.4534C28.1548 76.0766 27.6562 73.9288 27.6562 71.0095V47.3995H34.7708V70.5939C34.7708 72.0063 34.9249 73.0089 35.2335 73.6084C35.5421 74.2076 36.0583 74.5101 36.7824 74.5101C37.3992 74.5101 37.9926 74.3204 38.5623 73.9407C39.132 73.5607 39.5473 73.0801 39.8261 72.4988V47.3936H46.9346V79.002Z" fill="#FFFCFC"/>
<path d="M70.4792 52.4482C70.046 50.4545 69.3517 49.0127 68.3907 48.1167C67.4294 47.2207 66.1061 46.7757 64.421 46.7757C63.1157 46.7757 61.8933 47.1436 60.7599 47.8853C59.6266 48.627 58.7484 49.5941 58.1312 50.7987H58.078V34.1489H51.2246V78.9952H57.0989L57.8227 76.0047H57.9771C58.5289 77.0727 59.3536 77.9093 60.4514 78.5325C61.5491 79.1496 62.7715 79.4582 64.1125 79.4582C66.5156 79.4582 68.2898 78.3486 69.4231 76.1352C70.5564 73.916 71.1259 70.4567 71.1259 65.7456V60.7435C71.1259 57.2129 70.9063 54.4419 70.4792 52.4482ZM63.9581 65.3419C63.9581 67.6441 63.8632 69.448 63.6732 70.7534C63.4835 72.0588 63.1689 72.9905 62.718 73.5363C62.273 74.088 61.6677 74.361 60.9141 74.361C60.3268 74.361 59.7868 74.2245 59.2883 73.9457C58.79 73.6728 58.3866 73.2575 58.078 72.7115V54.7742C58.3152 53.9138 58.7307 53.2137 59.3181 52.6618C59.8996 52.11 60.5404 51.837 61.2227 51.837C61.9468 51.837 62.5043 52.1219 62.8961 52.6856C63.2935 53.2552 63.5665 54.2046 63.7209 55.5456C63.8751 56.8866 63.9523 58.7912 63.9523 61.2655V65.3419H63.9581Z" fill="#FFFCFC"/>
<path d="M81.2187 67.1636C81.2187 69.1928 81.278 70.7119 81.3969 71.7266C81.5154 72.7411 81.7647 73.4771 82.1444 73.9458C82.5241 74.4086 83.1057 74.6399 83.8949 74.6399C84.957 74.6399 85.6927 74.2246 86.0843 73.3999C86.4819 72.5751 86.6956 71.1986 86.7312 69.2761L92.8666 69.6379C92.9021 69.9108 92.9198 70.2905 92.9198 70.7712C92.9198 73.6905 92.1187 75.8741 90.5227 77.316C88.9267 78.7579 86.6658 79.4818 83.7465 79.4818C80.2398 79.4818 77.7832 78.384 76.3769 76.1827C74.9648 73.9814 74.2646 70.5814 74.2646 65.9768V60.4585C74.2646 55.7176 74.9946 52.2524 76.4541 50.0688C77.9139 47.8853 80.4119 46.7935 83.9541 46.7935C86.3928 46.7935 88.2679 47.2385 89.5733 48.1345C90.8787 49.0304 91.7983 50.4189 92.3324 52.3117C92.8666 54.2046 93.1335 56.8154 93.1335 60.1499V65.5615H81.2187V67.1636ZM82.1207 52.2702C81.7586 52.7152 81.5215 53.4451 81.3969 54.4597C81.278 55.4744 81.2187 57.0112 81.2187 59.0762V61.3428H86.4226V59.0762C86.4226 57.0468 86.3515 55.51 86.215 54.4597C86.0785 53.4095 85.8292 52.6737 85.4672 52.2405C85.1054 51.8133 84.5475 51.5938 83.7939 51.5938C83.0345 51.5997 82.4767 51.8252 82.1207 52.2702Z" fill="#FFFCFC"/>
</svg>
